<?xml version="1.0" standalone="no"?>
<!DOCTYPE svg PUBLIC "-//W3C//DTD SVG 20010904//EN"
 "http://www.w3.org/TR/2001/REC-SVG-20010904/DTD/svg10.dtd">
<svg version="1.0" xmlns="http://www.w3.org/2000/svg"
 width="300.000000pt" height="168.000000pt" viewBox="0 0 300.000000 168.000000"
 preserveAspectRatio="xMidYMid meet">

<g transform="translate(0.000000,168.000000) scale(0.100000,-0.100000)"
fill="#000000" stroke="none">
<path d="M0 840 l0 -840 1500 0 1500 0 0 840 0 840 -1500 0 -1500 0 0 -840z
m1225 720 c-3 -5 -11 -10 -16 -10 -6 0 -7 5 -4 10 3 6 11 10 16 10 6 0 7 -4 4
-10z m535 0 c0 -5 -5 -10 -11 -10 -5 0 -7 5 -4 10 3 6 8 10 11 10 2 0 4 -4 4
-10z m-16 -16 c9 -3 16 -16 16 -29 0 -30 39 -56 66 -43 18 9 18 8 2 -5 -16
-13 -18 -39 -18 -274 0 -188 -3 -262 -12 -271 -8 -8 -47 -12 -109 -12 -95 0
-97 0 -101 25 -3 14 -2 25 2 25 4 0 11 19 15 43 4 23 10 34 12 25 6 -23 31
-23 55 -1 18 16 26 39 10 29 -5 -3 -9 1 -9 9 0 8 5 11 10 8 5 -3 7 0 5 8 -3 8
-18 14 -34 15 -27 0 -29 3 -26 35 2 26 0 30 -7 19 -6 -8 -11 -11 -11 -6 0 11
43 52 70 66 10 5 30 10 44 10 21 0 26 5 26 25 0 14 -5 25 -11 25 -5 0 -7 4 -4
10 10 16 -40 22 -83 10 -73 -19 -123 -75 -137 -153 -5 -24 -13 -38 -24 -39
-22 -2 -56 -4 -121 -7 l-55 -3 44 -9 c24 -5 49 -6 55 -2 6 4 3 -2 -6 -13 -25
-29 -8 -49 42 -49 l41 0 -6 -35 c-13 -75 -1 -70 -166 -70 -111 0 -151 3 -154
13 -7 19 -11 566 -4 555 4 -7 14 -6 29 2 16 8 21 18 17 35 -3 16 1 26 12 28
25 7 508 8 525 1z m96 -34 c0 -5 -2 -10 -4 -10 -3 0 -8 5 -11 10 -3 6 -1 10 4
10 6 0 11 -4 11 -10z m-20 -20 c0 -5 -5 -10 -11 -10 -5 0 -7 5 -4 10 3 6 8 10
11 10 2 0 4 -4 4 -10z m-673 -177 c-3 -10 -5 -2 -5 17 0 19 2 27 5 18 2 -10 2
-26 0 -35z m482 -57 c-10 -9 -69 -36 -69 -32 0 7 52 35 64 36 5 0 7 -2 5 -4z
m101 -6 c18 -12 2 -12 -25 0 -13 6 -15 9 -5 9 8 0 22 -4 30 -9z m-30 -15 c0
-1 -11 -5 -25 -7 -20 -4 -23 -2 -14 8 8 10 39 10 39 -1z m-73 -33 c9 -15 8
-19 -3 -19 -8 0 -12 3 -9 5 3 3 0 11 -6 19 -6 7 -7 13 -3 13 5 0 14 -8 21 -18z
m-169 -167 c-3 -11 -7 -11 -28 1 -23 14 -23 14 -2 9 13 -4 22 -2 22 4 0 6 -5
11 -11 11 -5 0 -7 5 -3 11 8 14 27 -15 22 -36z m22 35 c0 -5 -2 -10 -4 -10 -3
0 -8 5 -11 10 -3 6 -1 10 4 10 6 0 11 -4 11 -10z m20 -24 c0 -2 -7 -7 -16 -10
-8 -3 -12 -2 -9 4 6 10 25 14 25 6z m15 -76 c3 -5 1 -10 -4 -10 -6 0 -11 5
-11 10 0 6 2 10 4 10 3 0 8 -4 11 -10z m-338 -76 c-3 -3 -12 -4 -19 -1 -8 3
-5 6 6 6 11 1 17 -2 13 -5z m660 0 c-3 -3 -12 -4 -19 -1 -8 3 -5 6 6 6 11 1
17 -2 13 -5z m-767 -178 c0 -2 -7 -7 -16 -10 -8 -3 -12 -2 -9 4 6 10 25 14 25
6z m74 -21 c13 -10 17 -23 14 -44 -2 -17 0 -32 6 -34 14 -6 -42 -6 -71 -1 -13
3 -22 8 -20 12 1 4 -2 7 -8 7 -5 0 -9 -4 -7 -8 1 -5 -2 -6 -8 -2 -8 5 -8 11 1
21 6 7 15 12 19 9 4 -3 10 4 13 15 3 11 13 20 24 20 15 0 16 2 3 10 -13 9 -13
10 0 10 8 -1 23 -7 34 -15z m336 5 c0 -5 -5 -10 -11 -10 -5 0 -7 5 -4 10 3 6
8 10 11 10 2 0 4 -4 4 -10z m57 4 c-3 -3 -12 -4 -19 -1 -8 3 -5 6 6 6 11 1 17
-2 13 -5z m-607 -15 c0 -6 -5 -7 -11 -3 -8 5 -10 -1 -7 -18 7 -36 -14 -48 -85
-48 -59 0 -65 -2 -71 -22 -14 -53 -10 -58 48 -58 52 0 54 -1 58 -30 4 -30 4
-30 -41 -31 -75 -1 -84 -8 -96 -75 l-10 -59 -38 -3 -39 -3 4 68 c1 37 6 70 9
73 3 3 12 49 21 103 13 87 13 97 -1 99 -9 1 37 4 101 8 64 3 126 6 138 7 11 1
20 -3 20 -8z m92 -24 c3 -13 2 -26 -1 -27 -4 -2 -15 -52 -24 -113 -15 -92 -15
-111 -4 -120 8 -5 16 -23 19 -38 3 -15 3 -25 0 -23 -2 3 -17 -1 -33 -10 -17
-8 -29 -10 -29 -4 0 5 -5 10 -12 10 -6 0 -20 7 -30 17 -13 12 -18 13 -18 3 0
-7 -3 -10 -6 -7 -4 4 -2 12 3 19 13 16 36 175 28 188 -3 6 -1 10 4 10 6 0 11
12 11 26 0 14 -4 23 -10 19 -5 -3 -6 -13 -3 -21 5 -14 3 -15 -15 -5 -12 7 -22
14 -22 17 0 3 5 2 10 -1 6 -3 13 1 16 9 3 9 12 16 20 16 9 0 14 11 14 29 0 26
4 30 33 33 41 4 44 3 49 -27z m46 21 c-7 -8 -15 -12 -17 -11 -5 6 10 25 20 25
5 0 4 -6 -3 -14z m498 -8 c-1 -13 -4 -25 -7 -28 -3 -3 -9 -25 -12 -50 -5 -41
-4 -46 14 -47 12 -1 17 3 13 9 -4 7 -2 8 5 4 16 -10 3 -27 -17 -24 -9 2 -16
-3 -14 -9 1 -7 -2 -13 -8 -13 -5 0 -10 -4 -10 -10 0 -27 34 -5 62 40 23 37 37
50 54 50 13 0 24 5 24 10 0 6 4 10 9 10 12 0 5 -70 -8 -83 -6 -6 -11 -16 -11
-21 0 -6 5 -4 11 4 9 13 10 13 6 0 -2 -8 -9 -15 -16 -15 -15 0 -41 -33 -41
-52 0 -7 6 -13 14 -13 8 0 18 -5 22 -12 5 -8 2 -9 -10 -5 -15 6 -17 4 -11 -10
4 -10 10 -30 13 -45 4 -25 1 -28 -25 -28 -16 0 -35 -6 -42 -12 -10 -11 -11 -9
-5 6 6 15 4 17 -6 11 -9 -6 -11 -4 -5 4 4 7 -1 30 -10 52 -18 40 -30 49 -33
27 -13 -91 -11 -89 -56 -86 -30 2 -40 7 -37 18 14 60 41 257 38 272 -3 10 -1
16 4 12 5 -3 9 2 9 10 0 9 -5 16 -12 16 -28 0 7 15 50 21 26 3 47 7 48 8 0 0
0 -9 0 -21z m29 -8 c3 -5 1 -10 -4 -10 -6 0 -11 5 -11 10 0 6 2 10 4 10 3 0 8
-4 11 -10z m618 -5 c-3 -9 -8 -14 -10 -11 -3 3 -2 9 2 15 9 16 15 13 8 -4z
m90 8 c-24 -5 -32 -23 -11 -23 9 0 9 -3 0 -12 -18 -18 -15 -38 6 -38 9 0 24
-5 32 -10 13 -8 13 -11 1 -19 -7 -5 -14 -22 -14 -37 0 -16 -2 -23 -4 -16 -8
21 -40 14 -47 -10 -8 -32 -7 -66 2 -71 4 -2 1 -2 -6 0 -8 2 -12 -4 -10 -15 2
-10 12 -17 25 -16 27 1 50 -41 27 -50 -9 -3 -13 -10 -10 -15 3 -5 -3 -7 -14
-4 -11 3 -20 1 -20 -5 0 -15 -60 5 -81 27 -12 13 -14 25 -7 65 5 26 7 54 4 62
-3 8 -1 14 4 14 15 0 12 26 -4 39 -17 15 -9 48 14 61 10 5 21 21 24 35 5 18
13 25 31 25 14 0 25 5 25 10 0 6 12 9 28 9 23 -2 24 -2 5 -6z m-1656 -55 c-3
-7 -5 -2 -5 12 0 14 2 19 5 13 2 -7 2 -19 0 -25z m554 10 c1 -7 1 -16 0 -20 0
-5 8 -8 19 -8 11 0 23 -7 27 -15 5 -14 8 -14 29 0 13 8 41 15 64 15 22 0 40 5
40 10 0 6 5 10 12 10 9 0 9 -3 0 -12 -9 -9 -8 -15 3 -28 19 -21 36 -108 23
-116 -6 -4 -8 -17 -5 -30 2 -14 0 -21 -6 -17 -6 4 -7 -5 -3 -23 4 -16 3 -24
-1 -17 -6 8 -14 6 -30 -7 -12 -9 -20 -19 -18 -21 2 -2 -10 -5 -27 -6 -17 -1
-36 -7 -43 -13 -6 -5 -15 -7 -18 -3 -4 3 -14 0 -24 -8 -15 -12 -16 -12 -10 4
3 9 2 17 -4 17 -6 0 -10 -12 -9 -27 3 -50 -10 -73 -40 -73 -42 0 -63 10 -51
24 6 7 12 39 13 72 2 32 7 62 11 65 5 3 9 33 10 67 1 33 5 58 10 55 4 -2 7 10
7 27 0 25 -4 31 -16 26 -8 -3 -12 -2 -9 4 3 6 3 10 -2 10 -8 0 -44 -231 -39
-253 1 -6 1 -8 -2 -3 -2 4 -8 2 -13 -5 -6 -10 -9 -11 -9 -1 0 6 -11 12 -24 12
-13 0 -29 7 -36 15 -7 8 -8 15 -3 15 15 0 35 171 21 187 -9 11 -7 12 7 7 15
-6 17 -3 13 17 -4 24 -3 25 46 18 28 -3 58 -8 66 -10 16 -5 21 20 7 39 -6 8
-6 12 2 12 6 0 12 -6 12 -12z m429 -7 c0 -4 -6 -8 -14 -8 -8 0 -12 6 -9 14 5
13 23 9 23 -6z m313 -7 c-7 -20 -19 -17 -19 5 0 11 6 17 13 14 6 -3 9 -11 6
-19z m-56 10 c-3 -3 -12 -4 -19 -1 -8 3 -5 6 6 6 11 1 17 -2 13 -5z m123 -4
c0 -5 -8 -10 -17 -10 -15 0 -16 2 -3 10 19 12 20 12 20 0z m100 -21 c-24 -19
-24 -20 -2 -9 32 15 52 6 45 -20 -3 -12 2 -30 13 -43 10 -12 15 -19 10 -15 -5
4 -16 2 -25 -5 -14 -11 -14 -10 -2 6 16 21 11 21 -34 3 -44 -19 -61 -48 -70
-118 l-6 -58 -40 0 c-45 0 -44 -7 -24 120 21 135 23 140 44 140 33 0 50 -11
45 -28 -5 -14 -3 -13 10 2 8 10 13 23 9 29 -3 6 -2 7 3 4 6 -3 16 -2 24 4 26
16 26 9 0 -12z m227 15 c-3 -3 -12 -4 -19 -1 -8 3 -5 6 6 6 11 1 17 -2 13 -5z
m-1062 -14 c-3 -5 -12 -10 -18 -10 -7 0 -6 4 3 10 19 12 23 12 15 0z m675 -15
c19 -7 28 -14 20 -14 -12 -1 -20 -29 -33 -118 l-18 -118 -42 3 c-70 4 -80 3
-86 -6 -8 -11 -51 -10 -44 2 4 5 -3 7 -15 4 -14 -4 -20 -2 -15 5 4 6 0 8 -9 4
-12 -4 -15 0 -11 16 3 15 2 18 -4 10 -17 -23 -2 121 16 159 10 21 14 39 9 42
-5 2 -3 3 4 2 7 -2 27 3 43 10 39 17 140 16 185 -1z m-523 -27 c-3 -8 -6 -5
-6 6 -1 11 2 17 5 13 3 -3 4 -12 1 -19z m863 -68 c0 -5 -5 -10 -11 -10 -5 0
-7 5 -4 10 3 6 8 10 11 10 2 0 4 -4 4 -10z m-622 -25 c-3 -3 -9 2 -12 12 -6
14 -5 15 5 6 7 -7 10 -15 7 -18z m289 -67 c-3 -8 -6 -5 -6 6 -1 11 2 17 5 13
3 -3 4 -12 1 -19z m-564 -52 c4 -10 1 -13 -8 -9 -8 3 -12 9 -9 14 7 12 11 11
17 -5z m157 10 c0 -3 -4 -8 -10 -11 -5 -3 -10 -1 -10 4 0 6 5 11 10 11 6 0 10
-2 10 -4z m640 -25 c0 -4 -6 -8 -13 -8 -8 0 -14 6 -14 13 0 7 6 10 14 7 7 -3
13 -8 13 -12z m-833 -7 c-3 -3 -12 -4 -19 -1 -8 3 -5 6 6 6 11 1 17 -2 13 -5z
m90 0 c-3 -3 -12 -4 -19 -1 -8 3 -5 6 6 6 11 1 17 -2 13 -5z"/>
<path d="M1340 1501 c0 -6 5 -13 10 -16 6 -3 10 1 10 9 0 9 -4 16 -10 16 -5 0
-10 -4 -10 -9z"/>
<path d="M1605 1501 c-6 -11 9 -23 19 -14 9 9 7 23 -3 23 -6 0 -12 -4 -16 -9z"/>
<path d="M1428 1443 c46 -2 118 -2 160 0 42 1 5 3 -83 3 -88 0 -123 -2 -77 -3z"/>
<path d="M1275 507 c-19 -16 -28 -34 -31 -65 -3 -39 -2 -42 22 -42 13 0 35 10
47 21 12 12 16 18 8 14 -10 -6 -12 -4 -6 5 5 8 2 17 -7 24 -13 10 -12 14 5 31
l20 20 -7 -20 c-6 -15 -4 -17 5 -8 15 15 5 43 -15 43 -8 0 -27 -10 -41 -23z"/>
<path d="M1310 476 c0 -2 7 -9 15 -16 9 -7 15 -8 15 -2 0 5 -7 12 -15 16 -8 3
-15 4 -15 2z"/>
<path d="M1790 520 c-22 -22 -29 -104 -9 -116 30 -18 100 82 86 121 -9 21 -53
19 -77 -5z m27 -52 c-3 -8 -6 -5 -6 6 -1 11 2 17 5 13 3 -3 4 -12 1 -19z m-17
-8 c0 -5 -2 -10 -4 -10 -3 0 -8 5 -11 10 -3 6 -1 10 4 10 6 0 11 -4 11 -10z
m-2 -45 c-3 -3 -9 2 -12 12 -6 14 -5 15 5 6 7 -7 10 -15 7 -18z"/>
<path d="M1841 366 c-9 -10 -8 -15 4 -20 10 -4 15 1 15 14 0 24 -4 25 -19 6z"/>
</g>
</svg>
