<?xml version="1.0" standalone="no"?>
<!DOCTYPE svg PUBLIC "-//W3C//DTD SVG 20010904//EN"
 "http://www.w3.org/TR/2001/REC-SVG-20010904/DTD/svg10.dtd">
<svg version="1.0" xmlns="http://www.w3.org/2000/svg"
 width="512.000000pt" height="512.000000pt" viewBox="0 0 512.000000 512.000000"
 preserveAspectRatio="xMidYMid meet">

<g transform="translate(0.000000,512.000000) scale(0.100000,-0.100000)"
fill="#000000" stroke="none">
<path d="M1661 4218 l-294 -289 119 -122 c308 -316 459 -467 466 -467 3 0 8
63 10 141 3 140 3 141 31 165 34 29 77 31 217 9 481 -72 856 -445 932 -924
l12 -81 255 0 254 0 -7 82 c-44 522 -396 1031 -881 1273 -216 108 -414 161
-638 172 -105 5 -123 9 -146 29 -25 22 -26 26 -31 162 l-5 139 -294 -289z"/>
<path d="M1101 3876 c-378 -278 -617 -694 -666 -1163 l-7 -63 256 0 256 0 4
23 c27 154 43 216 73 291 85 214 226 390 411 513 l83 56 -145 146 c-141 142
-166 177 -166 227 0 13 -6 24 -12 24 -7 0 -46 -25 -87 -54z"/>
<path d="M435 2403 c17 -168 70 -365 140 -519 38 -84 127 -235 149 -253 9 -8
113 -11 370 -9 l358 3 -64 47 c-79 57 -201 184 -255 264 -84 123 -148 280
-172 419 -7 39 -14 80 -17 93 l-4 22 -256 0 -256 0 7 -67z"/>
<path d="M3141 2388 c-71 -465 -450 -848 -907 -918 -43 -7 -85 -14 -91 -16
-10 -3 -13 -63 -13 -259 l0 -256 68 7 c766 71 1381 680 1460 1447 l8 77 -256
0 -257 0 -12 -82z"/>
<path d="M4355 1643 c-4 -76 -12 -146 -19 -154 -27 -37 -46 -39 -469 -39
l-414 0 -63 -75 c-110 -131 -284 -273 -460 -375 l-105 -60 727 0 c512 0 734
-3 751 -11 40 -18 47 -46 49 -189 l3 -135 298 295 297 295 -294 294 -294 294
-7 -140z"/>
<path d="M199 1421 l-29 -29 0 -192 c0 -193 4 -220 39 -247 12 -10 217 -12
884 -13 l867 0 0 255 0 255 -866 0 -866 0 -29 -29z"/>
</g>
</svg>
