<svg version="1.0" xmlns="http://www.w3.org/2000/svg"
 width="512.000000pt" height="512.000000pt" viewBox="0 0 512.000000 512.000000"
 preserveAspectRatio="xMidYMid meet">

<g transform="translate(0.000000,512.000000) scale(0.100000,-0.100000)"
fill="#000000" stroke="none">
<path d="M1630 4949 c-411 -53 -781 -241 -1066 -542 -123 -130 -212 -257 -294
-422 -104 -210 -155 -379 -179 -607 -66 -598 199 -1213 678 -1577 351 -267
788 -397 1208 -362 349 30 634 138 938 356 19 13 33 1 227 -186 l208 -201 -15
-28 c-24 -45 -20 -148 8 -199 23 -44 940 -941 1009 -988 27 -18 56 -27 101
-30 106 -9 131 8 346 228 102 105 197 210 211 232 20 34 25 55 25 112 0 57 -5
78 -25 111 -35 58 -969 963 -1025 992 -54 29 -146 33 -194 7 l-32 -16 -137
130 c-75 71 -172 165 -214 208 l-77 78 46 80 c248 436 299 960 138 1440 -39
118 -156 347 -230 450 -288 402 -725 667 -1205 731 -114 15 -345 17 -450 3z
m525 -179 c330 -70 621 -231 849 -471 366 -384 515 -913 406 -1436 -84 -402
-330 -763 -680 -998 -731 -491 -1733 -287 -2222 450 -311 469 -351 1062 -107
1575 82 171 166 289 313 435 275 274 555 410 971 469 79 11 373 -4 470 -24z
m1435 -3093 c0 -5 -30 -40 -66 -78 l-67 -68 -198 191 -198 191 72 78 72 78
193 -192 c105 -105 192 -196 192 -200z m800 -438 c261 -253 478 -470 482 -481
5 -11 5 -29 2 -41 -3 -12 -87 -106 -188 -209 -158 -164 -185 -188 -212 -188
-28 0 -89 56 -513 467 -451 438 -481 469 -481 501 0 31 15 50 146 186 224 230
219 226 256 226 30 0 78 -44 508 -461z"/>
<path d="M1720 4639 c-338 -28 -644 -171 -893 -417 -202 -200 -329 -427 -395
-705 -24 -102 -26 -131 -27 -312 0 -224 10 -291 71 -475 138 -415 481 -757
907 -904 154 -53 257 -69 452 -70 137 -1 201 4 270 17 581 118 1018 538 1152
1106 36 157 43 392 15 556 -92 535 -479 981 -992 1143 -171 54 -378 77 -560
61z m346 -174 c586 -103 1030 -604 1061 -1201 26 -505 -250 -983 -697 -1209
-202 -102 -361 -139 -590 -138 -166 0 -249 13 -395 60 -394 127 -724 469 -836
867 -205 731 263 1485 1008 1620 108 19 339 20 449 1z"/>
<path d="M1810 4377 c-41 -21 -51 -53 -47 -150 3 -74 7 -91 25 -109 30 -31 88
-30 113 1 27 33 28 220 2 244 -26 23 -65 29 -93 14z"/>
<path d="M1292 4227 c-12 -13 -22 -36 -22 -51 0 -31 61 -147 93 -177 47 -44
127 -7 127 58 0 36 -72 168 -100 183 -32 17 -75 11 -98 -13z"/>
<path d="M2298 4240 c-19 -12 -96 -141 -98 -167 -4 -37 1 -53 22 -73 29 -27
79 -26 105 3 37 40 93 145 93 174 0 55 -71 92 -122 63z"/>
<path d="M1702 4045 c-132 -29 -281 -123 -367 -232 -93 -119 -138 -250 -138
-403 0 -129 21 -203 97 -340 95 -170 126 -280 126 -445 0 -107 14 -152 61
-197 29 -28 39 -45 39 -68 0 -39 32 -102 64 -127 15 -12 26 -34 31 -63 10 -62
29 -94 72 -127 34 -26 43 -28 150 -31 107 -4 116 -2 157 22 48 28 86 90 86
141 0 18 13 42 39 70 37 40 61 95 61 139 0 10 11 27 25 38 46 36 57 73 65 218
9 160 29 244 81 345 22 41 56 108 77 148 47 91 64 162 64 275 0 108 -21 201
-66 291 -135 266 -433 409 -724 346z m240 -156 c89 -19 177 -67 244 -133 106
-106 149 -219 142 -375 -3 -92 -6 -102 -48 -181 -118 -226 -140 -285 -165
-432 -6 -37 -7 -38 -50 -38 l-45 0 0 229 0 228 60 6 c117 10 195 86 207 199 4
45 1 61 -24 108 -40 77 -103 115 -187 115 -119 0 -202 -80 -213 -205 -4 -41
-10 -60 -19 -60 -9 0 -14 12 -14 33 0 67 -28 132 -74 175 -71 66 -157 77 -244
33 -48 -24 -66 -46 -93 -105 -59 -134 35 -279 191 -293 l60 -6 0 -228 0 -229
-45 0 c-38 0 -45 3 -49 23 -42 204 -58 247 -137 387 -64 113 -80 165 -80 267
0 99 12 147 58 236 97 185 319 289 525 246z m-298 -442 c12 -9 19 -28 20 -53
1 -37 -1 -39 -31 -42 -22 -2 -38 3 -52 17 -26 26 -26 46 -1 71 23 23 39 25 64
7z m466 -7 c25 -25 25 -45 -1 -71 -14 -14 -30 -19 -52 -17 -28 3 -32 7 -35 35
-2 22 3 38 17 52 26 26 46 26 71 1z m-250 -480 c0 -198 -2 -230 -15 -230 -13
0 -15 32 -15 230 0 198 2 230 15 230 13 0 15 -32 15 -230z m240 -410 c0 -6
-91 -10 -254 -10 -159 0 -257 4 -261 10 -4 7 83 10 254 10 167 0 261 -4 261
-10z m-90 -180 c0 -6 -62 -10 -165 -10 -103 0 -165 4 -165 10 0 6 62 10 165
10 103 0 165 -4 165 -10z m-90 -190 c0 -6 -30 -10 -70 -10 -40 0 -70 4 -70 10
0 6 30 10 70 10 40 0 70 -4 70 -10z"/>
<path d="M929 3861 c-53 -54 -34 -94 75 -155 44 -25 89 -46 99 -46 25 0 77 54
77 80 0 12 -5 30 -10 41 -14 25 -158 109 -188 109 -13 0 -37 -13 -53 -29z"/>
<path d="M2615 3850 c-38 -21 -78 -49 -87 -61 -36 -43 -11 -110 47 -125 27 -7
151 55 187 93 31 33 28 80 -6 110 -37 32 -60 29 -141 -17z"/>
</g>
</svg>
