<?xml version="1.0" standalone="no"?>
<!DOCTYPE svg PUBLIC "-//W3C//DTD SVG 20010904//EN"
 "http://www.w3.org/TR/2001/REC-SVG-20010904/DTD/svg10.dtd">
<svg version="1.0" xmlns="http://www.w3.org/2000/svg"
 width="225.000000pt" height="225.000000pt" viewBox="0 0 225.000000 225.000000"
 preserveAspectRatio="xMidYMid meet">

<g transform="translate(0.000000,225.000000) scale(0.100000,-0.100000)"
fill="#000000" stroke="none">
<path d="M1343 1663 c-8 -21 2 -26 62 -31 31 -2 57 -7 59 -11 2 -3 -215 -155
-483 -337 -435 -296 -525 -364 -479 -364 8 0 234 150 503 334 270 183 492 332
494 330 2 -2 -2 -32 -9 -68 -12 -67 -9 -89 14 -80 16 6 53 201 40 213 -5 5
-51 13 -103 18 -75 7 -94 6 -98 -4z"/>
<path d="M1522 963 l3 -388 115 0 115 0 3 388 2 387 -120 0 -120 0 2 -387z
m198 -3 l0 -350 -80 0 -80 0 0 350 0 350 80 0 80 0 0 -350z"/>
<path d="M1182 828 l3 -253 115 0 115 0 3 253 2 252 -120 0 -120 0 2 -252z
m198 2 l0 -210 -80 0 -80 0 0 210 0 210 80 0 80 0 0 -210z"/>
<path d="M836 974 c-3 -8 -6 -98 -6 -199 0 -144 3 -185 14 -194 9 -8 51 -11
122 -9 l109 3 0 205 0 205 -116 3 c-100 2 -118 0 -123 -14z m204 -194 l0 -171
-82 3 -83 3 -3 168 -2 167 85 0 85 0 0 -170z"/>
<path d="M497 824 c-4 -4 -7 -58 -7 -119 0 -84 4 -115 14 -124 9 -8 51 -11
122 -9 l109 3 0 125 0 125 -116 3 c-63 1 -118 -1 -122 -4z"/>
</g>
</svg>
